HIERARCHY
ROOT hip
{
  OFFSET 5.51535 103.731 -2.80141
  CHANNELS 6 Xposition Yposition Zposition Zrotation Xrotation Yrotation
  JOINT abdomen
  {
    OFFSET 0 -1.186 -1.5018
    CHANNELS 6 Xposition Yposition Zposition Zrotation Xrotation Yrotation
    JOINT abdomen2
    {
      OFFSET 0 9.964 0.2134
      CHANNELS 6 Xposition Yposition Zposition Zrotation Xrotation Yrotation
      JOINT chest
      {
        OFFSET 0 13.134 -3.2573
        CHANNELS 6 Xposition Yposition Zposition Zrotation Xrotation Yrotation
        JOINT neck
        {
          OFFSET 0 20.686 -1.6905
          CHANNELS 6 Xposition Yposition Zposition Zrotation Xrotation Yrotation
          JOINT head
          {
            OFFSET 0 7.23801 -0.1237
            CHANNELS 6 Xposition Yposition Zposition Zrotation Xrotation Yrotation
            End Site
            {
              OFFSET 0 0 0
            }
          }
        }
        JOINT lCollar
        {
          OFFSET 1.7069 20.075 5.0056
          CHANNELS 6 Xposition Yposition Zposition Zrotation Xrotation Yrotation
          JOINT lShldr
          {
            OFFSET 13.6458 -0.0470195 -4.849
            CHANNELS 6 Xposition Yposition Zposition Zrotation Xrotation Yrotation
            JOINT lForeArm
            {
              OFFSET 28.3255 -0.97589 2.2888
              CHANNELS 6 Xposition Yposition Zposition Zrotation Xrotation Yrotation
              JOINT lHand
              {
                OFFSET 22.1583 -0.529998 10.8316
                CHANNELS 6 Xposition Yposition Zposition Zrotation Xrotation Yrotation
                JOINT lThumb1
                {
                  OFFSET 0.786 0.111997 2.5817
                  CHANNELS 6 Xposition Yposition Zposition Zrotation Xrotation Yrotation
                  JOINT lThumb2
                  {
                    OFFSET 0.360097 -0.877999 4.2331
                    CHANNELS 6 Xposition Yposition Zposition Zrotation Xrotation Yrotation
                    JOINT lThumb2_End
                    {
                      OFFSET 1.8127 -1.21601 2.2227
                      CHANNELS 6 Xposition Yposition Zposition Zrotation Xrotation Yrotation
                      End Site
                      {
                        OFFSET 0.0180981 -0.012195 0.0222007
                      }
                    }
                  }
                }
                JOINT lCarpal1
                {
                  OFFSET 0.9571 1.114 1.7695
                  CHANNELS 6 Xposition Yposition Zposition Zrotation Xrotation Yrotation
                  JOINT lIndex1
                  {
                    OFFSET 4.12461 0.486992 4.1451
                    CHANNELS 6 Xposition Yposition Zposition Zrotation Xrotation Yrotation
                    JOINT lIndex2
                    {
                      OFFSET 3.4052 -1.45401 2.7682
                      CHANNELS 6 Xposition Yposition Zposition Zrotation Xrotation Yrotation
                      JOINT lIndex2_End
                      {
                        OFFSET 1.45309 -1.79499 1.2713
                        CHANNELS 6 Xposition Yposition Zposition Zrotation Xrotation Yrotation
                        End Site
                        {
                          OFFSET 0.0144979 -0.0179083 0.0126995
                        }
                      }
                    }
                  }
                  JOINT lMid1
                  {
                    OFFSET 5.6954 0.209987 2.1184
                    CHANNELS 6 Xposition Yposition Zposition Zrotation Xrotation Yrotation
                    JOINT lMid2
                    {
                      OFFSET 3.9766 -1.53999 2.3863
                      CHANNELS 6 Xposition Yposition Zposition Zrotation Xrotation Yrotation
                      JOINT lMid2_End
                      {
                        OFFSET 1.4042 -1.926 1.125
                        CHANNELS 6 Xposition Yposition Zposition Zrotation Xrotation Yrotation
                        End Site
                        {
                          OFFSET 0.013999 -0.0193044 0.011301
                        }
                      }
                    }
                  }
                }
                JOINT lCarpal2
                {
                  OFFSET 2.0956 0.66 -0.3894
                  CHANNELS 6 Xposition Yposition Zposition Zrotation Xrotation Yrotation
                  JOINT lRing1
                  {
                    OFFSET 5.0395 -0.090013 2.4971
                    CHANNELS 6 Xposition Yposition Zposition Zrotation Xrotation Yrotation
                    JOINT lRing2
                    {
                      OFFSET 3.7921 -1.55199 1.4806
                      CHANNELS 6 Xposition Yposition Zposition Zrotation Xrotation Yrotation
                      JOINT lRing2_End
                      {
                        OFFSET 1.4655 -1.808 0.9609
                        CHANNELS 6 Xposition Yposition Zposition Zrotation Xrotation Yrotation
                        End Site
                        {
                          OFFSET 0.0147015 -0.0181014 0.00959957
                        }
                      }
                    }
                  }
                  JOINT lPinky1
                  {
                    OFFSET 4.9141 -1.269 0.3591
                    CHANNELS 6 Xposition Yposition Zposition Zrotation Xrotation Yrotation
                    JOINT lPinky2
                    {
                      OFFSET 3.1477 -1.685 0.8462
                      CHANNELS 6 Xposition Yposition Zposition Zrotation Xrotation Yrotation
                      JOINT lPinky2_End
                      {
                        OFFSET 0.805498 -1.58501 0.795499
                        CHANNELS 6 Xposition Yposition Zposition Zrotation Xrotation Yrotation
                        End Site
                        {
                          OFFSET 0.00809703 -0.0157944 0.00799848
                        }
                      }
                    }
                  }
                }
              }
            }
          }
        }
        JOINT rCollar
        {
          OFFSET -1.7069 20.075 5.0056
          CHANNELS 6 Xposition Yposition Zposition Zrotation Xrotation Yrotation
          JOINT rShldr
          {
            OFFSET -13.6458 -0.0470107 -4.849
            CHANNELS 6 Xposition Yposition Zposition Zrotation Xrotation Yrotation
            JOINT rForeArm
            {
              OFFSET -28.3255 -0.975895 2.2888
              CHANNELS 6 Xposition Yposition Zposition Zrotation Xrotation Yrotation
              JOINT rHand
              {
                OFFSET -22.1583 -0.530007 10.8316
                CHANNELS 6 Xposition Yposition Zposition Zrotation Xrotation Yrotation
                JOINT rThumb1
                {
                  OFFSET -0.785997 0.112005 2.5817
                  CHANNELS 6 Xposition Yposition Zposition Zrotation Xrotation Yrotation
                  JOINT rThumb2
                  {
                    OFFSET -0.360106 -0.877994 4.2331
                    CHANNELS 6 Xposition Yposition Zposition Zrotation Xrotation Yrotation
                    JOINT rThumb2_End
                    {
                      OFFSET -1.8127 -1.216 2.2227
                      CHANNELS 6 Xposition Yposition Zposition Zrotation Xrotation Yrotation
                      End Site
                      {
                        OFFSET -0.0180972 -0.0121973 0.0222005
                      }
                    }
                  }
                }
                JOINT rCarpal1
                {
                  OFFSET -0.9571 1.114 1.7695
                  CHANNELS 6 Xposition Yposition Zposition Zrotation Xrotation Yrotation
                  JOINT rIndex1
                  {
                    OFFSET -4.1246 0.487011 4.1451
                    CHANNELS 6 Xposition Yposition Zposition Zrotation Xrotation Yrotation
                    JOINT rIndex2
                    {
                      OFFSET -3.4052 -1.45401 2.7682
                      CHANNELS 6 Xposition Yposition Zposition Zrotation Xrotation Yrotation
                      JOINT rIndex2_End
                      {
                        OFFSET -1.4531 -1.795 1.2713
                        CHANNELS 6 Xposition Yposition Zposition Zrotation Xrotation Yrotation
                        End Site
                        {
                          OFFSET -0.0145077 -0.0180048 0.0127017
                        }
                      }
                    }
                  }
                  JOINT rMid1
                  {
                    OFFSET -5.6954 0.210002 2.1184
                    CHANNELS 6 Xposition Yposition Zposition Zrotation Xrotation Yrotation
                    JOINT rMid2
                    {
                      OFFSET -3.9766 -1.54 2.3863
                      CHANNELS 6 Xposition Yposition Zposition Zrotation Xrotation Yrotation
                      JOINT rMid2_End
                      {
                        OFFSET -1.4042 -1.926 1.125
                        CHANNELS 6 Xposition Yposition Zposition Zrotation Xrotation Yrotation
                        End Site
                        {
                          OFFSET -0.0139948 -0.0192916 0.0112994
                        }
                      }
                    }
                  }
                }
                JOINT rCarpal2
                {
                  OFFSET -2.0956 0.66 -0.3894
                  CHANNELS 6 Xposition Yposition Zposition Zrotation Xrotation Yrotation
                  JOINT rRing1
                  {
                    OFFSET -5.03951 -0.0899879 2.4971
                    CHANNELS 6 Xposition Yposition Zposition Zrotation Xrotation Yrotation
                    JOINT rRing2
                    {
                      OFFSET -3.7921 -1.55201 1.4806
                      CHANNELS 6 Xposition Yposition Zposition Zrotation Xrotation Yrotation
                      JOINT rRing2_End
                      {
                        OFFSET -1.4655 -1.808 0.960901
                        CHANNELS 6 Xposition Yposition Zposition Zrotation Xrotation Yrotation
                        End Site
                        {
                          OFFSET -0.0146934 -0.0180999 0.00959832
                        }
                      }
                    }
                  }
                  JOINT rPinky1
                  {
                    OFFSET -4.91411 -1.26899 0.359202
                    CHANNELS 6 Xposition Yposition Zposition Zrotation Xrotation Yrotation
                    JOINT rPinky2
                    {
                      OFFSET -3.14769 -1.68501 0.846199
                      CHANNELS 6 Xposition Yposition Zposition Zrotation Xrotation Yrotation
                      JOINT rPinky2_End
                      {
                        OFFSET -0.805498 -1.585 0.7955
                        CHANNELS 6 Xposition Yposition Zposition Zrotation Xrotation Yrotation
                        End Site
                        {
                          OFFSET -0.00810035 -0.0158035 0.00800029
                        }
                      }
                    }
                  }
                }
              }
            }
          }
        }
      }
    }
  }
  JOINT lThigh
  {
    OFFSET 8.367 -8.2066 0.5982
    CHANNELS 6 Xposition Yposition Zposition Zrotation Xrotation Yrotation
    JOINT lShin
    {
      OFFSET 2.1923 -43.463 -0.4932
      CHANNELS 6 Xposition Yposition Zposition Zrotation Xrotation Yrotation
      JOINT lFoot
      {
        OFFSET 0.733301 -45.8593 -2.6451
        CHANNELS 6 Xposition Yposition Zposition Zrotation Xrotation Yrotation
        End Site
        {
          OFFSET 2.6618 -4.2699 12.3931
        }
      }
    }
  }
  JOINT rThigh
  {
    OFFSET -8.367 -8.2066 0.5982
    CHANNELS 6 Xposition Yposition Zposition Zrotation Xrotation Yrotation
    JOINT rShin
    {
      OFFSET -2.1923 -43.463 -0.4931
      CHANNELS 6 Xposition Yposition Zposition Zrotation Xrotation Yrotation
      JOINT rFoot
      {
        OFFSET -0.733299 -45.8593 -2.6451
        CHANNELS 6 Xposition Yposition Zposition Zrotation Xrotation Yrotation
        End Site
        {
          OFFSET -2.6618 -4.2699 12.3931
        }
      }
    }
  }
}
MOTION
Frames:	4
Frame Time:	0.0333333
-41.9669 100.054 -52.8319 -0.635287 6.14509 101.884 3.4196e-007 -1.18599 -1.5018 -0.000420838 -2.15287 1.02168 1.8801e-007 9.964 0.2134 0.0376441 -4.30543 2.0455 1.15439e-006 13.134 -3.2573 0.0376418 -4.30542 2.04551 -2.52227e-006 20.686 -1.6905 -0.57059 13.6137 -8.57508 -1.30451e-006 7.23801 -0.123698 -6.33082 -1.10015 -8.80724 1.7069 20.075 5.0056 0.496448 0.856012 8.23866 13.6458 -0.0470097 -4.849 -74.2297 -0.445627 34.0689 28.3255 -0.975902 2.28881 -1.619 8.31151 -8.63793 22.1583 -0.530005 10.8316 -26.7084 -34.8359 -2.27116 0.786006 0.111993 2.5817 0.000355965 0.000284886 4.33769e-005 0.360098 -0.878003 4.2331 -0.00272733 0.00199607 0.00477402 1.81269 -1.21601 2.2227 -0.00017571 6.10212e-005 1.29504e-005 0.9571 1.114 1.7695 7.95139e-016 0 -0 4.1246 0.486993 4.1451 -0.000114348 -0.000118428 0.000188395 3.4052 -1.45401 2.7682 0.000401679 0.000106732 2.65485e-006 1.4531 -1.79499 1.2713 -0.000182051 3.7568e-005 2.44253e-005 5.6954 0.209986 2.1184 2.01424 -1.01026 -0.822491 3.9766 -1.53999 2.3863 2.01524 -1.01084 -0.822906 1.4042 -1.926 1.125 2.01531 -1.01095 -0.823218 2.0956 0.66 -0.3894 7.95139e-016 0 -0 5.03951 -0.0900171 2.4971 1.83513 -3.86237 -5.61255 3.7921 -1.55199 1.4806 4.41725 -2.45617 -2.02478 1.4655 -1.808 0.960897 4.4175 -2.45619 -2.02483 4.9141 -1.269 0.359103 10.759 -6.72879 -4.53615 3.1477 -1.68501 0.846197 3.85859 -2.28131 -1.746 0.805501 -1.58501 0.795498 2.70809 -1.58473 -1.23796 -1.7069 20.075 5.0056 -43.5806 -1.20683 5.58144 -13.6458 -0.0470148 -4.849 -9.49863 -41.9552 -7.42169 -28.3255 -0.975889 2.28879 7.44344 -33.1725 10.5002 -22.1583 -0.530001 10.8316 11.1095 -20.0442 -6.43101 -0.785998 0.112004 2.5817 -19.2121 49.9311 17.782 -0.360104 -0.877995 4.2331 -0.518243 0.461426 -1.5909 -1.8127 -1.216 2.2227 -2.77349 2.81313 -9.01341 -0.9571 1.114 1.7695 -0 0 9.54166e-015 -4.12461 0.487011 4.14511 -23.6185 3.40208 -15.5055 -3.4052 -1.45401 2.76819 39.4979 10.0978 -9.2747 -1.4531 -1.795 1.2713 38.8029 9.98601 -9.06151 -5.69541 0.209999 2.1184 -1.0422 5.48644 -10.0637 -3.9766 -1.54 2.3863 52.309 13.5299 -14.1045 -1.4042 -1.92599 1.12501 44.0035 12.3921 -11.1857 -2.0956 0.66 -0.3894 -0 0 9.54166e-015 -5.03951 -0.0899881 2.4971 16.4926 0.275076 -5.6591 -3.7921 -1.55201 1.4806 37.334 11.9096 -10.7863 -1.4655 -1.80801 0.960895 38.6322 12.1694 -11.2726 -4.91411 -1.26899 0.359207 24.6638 -0.263258 -2.07537 -3.14769 -1.68501 0.846195 30.529 11.3149 -8.19445 -0.805499 -1.585 0.795494 30.4595 11.2958 -8.16999 8.36701 -8.20662 0.598202 -24.2765 2.3936 -2.00837 2.1923 -43.4631 -0.493195 0.517202 -1.57328 0.984969 0.733306 -45.8593 -2.6451 10.3196 0.0108267 -6.19508 -8.36701 -8.20662 0.598197 -2.01975 -16.0578 45.6688 -2.19293 -43.463 -0.492378 13.3732 41.8731 -5.65903 -0.7333 -45.8593 -2.64509 -15.7781 3.29963 -23.1762 
-41.7958 99.9463 -52.9941 -0.634621 6.46578 102.61 4.50998e-008 -1.186 -1.5018 -0.0303265 -2.24436 1.06029 9.29031e-008 9.964 0.213402 -0.019068 -4.4889 2.12184 -1.56676e-007 13.134 -3.2573 -0.0190685 -4.4889 2.12185 1.45588e-006 20.686 -1.6905 -0.463772 13.9935 -8.88237 -9.64082e-007 7.238 -0.123698 -6.51412 -0.939263 -9.03484 1.7069 20.075 5.0056 0.0519585 0.9004 8.59373 13.6458 -0.0470058 -4.849 -72.9346 -0.665562 34.4087 28.3255 -0.97589 2.2888 -1.13318 7.99334 -8.24665 22.1583 -0.529994 10.8316 -26.7632 -34.7369 -1.02533 0.786007 0.111993 2.5817 -0.0560929 -0.0107439 -0.12133 0.360101 -0.878 4.2331 -0.0219349 -0.00281122 -0.0397449 1.8127 -1.21601 2.2227 -0.0238766 -0.00276863 -0.0434471 0.9571 1.114 1.7695 7.95139e-016 0 -1.59028e-015 4.12461 0.486991 4.1451 0.0818933 -0.0453528 -0.0827846 3.4052 -1.454 2.7682 0.081858 -0.0360443 -0.0332913 1.4531 -1.79499 1.2713 0.0905698 -0.0402489 -0.0370635 5.6954 0.209989 2.1184 2.0897 -1.04816 -0.852605 3.9766 -1.53999 2.3863 2.09047 -1.04927 -0.853066 1.4042 -1.926 1.125 2.09053 -1.04936 -0.853362 2.0956 0.66 -0.3894 7.95139e-016 0 -1.59028e-015 5.0395 -0.0900144 2.4971 1.90754 -3.88467 -5.61446 3.7921 -1.55199 1.4806 4.47303 -2.48849 -2.04941 1.4655 -1.808 0.960904 4.47335 -2.48853 -2.04944 4.91411 -1.269 0.359103 10.8157 -6.7141 -4.47682 3.1477 -1.685 0.846204 3.91721 -2.31717 -1.77155 0.805501 -1.585 0.795501 2.78338 -1.60814 -1.26389 -1.7069 20.075 5.0056 -43.5742 -1.2047 5.55578 -13.6458 -0.0470084 -4.849 -10.2572 -42.2861 -6.99808 -28.3255 -0.975883 2.2888 6.92305 -32.6788 8.85392 -22.1583 -0.530002 10.8316 11.4106 -19.2017 -6.16948 -0.786003 0.112004 2.5817 -19.2121 49.9311 17.782 -0.360109 -0.877991 4.2331 -0.518245 0.461433 -1.59089 -1.8127 -1.216 2.2227 -2.77347 2.81314 -9.01341 -0.9571 1.114 1.7695 3.18055e-015 -6.36111e-015 -3.18055e-015 -4.12461 0.487014 4.14511 -23.6185 3.4021 -15.5055 -3.4052 -1.454 2.76819 39.4979 10.0978 -9.27469 -1.4531 -1.795 1.2713 38.8029 9.98601 -9.06152 -5.6954 0.210003 2.1184 -1.04218 5.48645 -10.0637 -3.9766 -1.54 2.38629 52.309 13.5299 -14.1045 -1.4042 -1.926 1.125 44.0035 12.3921 -11.1857 -2.0956 0.66 -0.3894 3.18055e-015 -6.36111e-015 -3.18055e-015 -5.0395 -0.0899854 2.4971 16.4926 0.27507 -5.65909 -3.7921 -1.55201 1.4806 37.334 11.9096 -10.7863 -1.4655 -1.808 0.960899 38.6322 12.1694 -11.2726 -4.9141 -1.26899 0.359199 24.6638 -0.263249 -2.07537 -3.1477 -1.685 0.846205 30.529 11.3149 -8.19445 -0.805499 -1.585 0.795501 30.4595 11.2958 -8.17 8.36701 -8.20661 0.598201 -24.6793 2.77033 -2.586 2.1923 -43.463 -0.493199 0.516562 -1.44107 1.01048 0.733303 -45.8593 -2.6451 10.5301 0.00648549 -6.31486 -8.367 -8.20662 0.598199 -2.12997 -15.6826 46.1544 -2.19221 -43.463 -0.493198 13.6378 42.3659 -5.81185 -0.733301 -45.8593 -2.6451 -15.7946 3.58379 -23.652 
-41.6129 99.8439 -53.0945 -0.62219 6.9098 103.584 1.28075e-006 -1.186 -1.5018 -0.101118 -2.30858 1.04472 -2.91334e-006 9.96399 0.213401 -0.160287 -4.61863 2.08745 8.73457e-007 13.134 -3.2573 -0.160284 -4.61863 2.08747 -1.97687e-006 20.686 -1.6905 -0.366537 14.3364 -9.09023 -4.831e-007 7.238 -0.123699 -6.68184 -0.830257 -9.28277 1.7069 20.075 5.0056 -0.621467 0.948146 8.98241 13.6458 -0.0470164 -4.849 -70.9356 -1.22165 34.1673 28.3255 -0.975899 2.28881 -1.2333 6.42617 -7.02936 22.1583 -0.529996 10.8316 -25.6948 -33.0528 0.783047 0.786002 0.111997 2.5817 -0.218177 -0.0408774 -0.469533 0.360097 -0.877998 4.2331 -0.0841642 -0.0101616 -0.153788 1.8127 -1.21601 2.2227 -0.0918963 -0.0108028 -0.168132 0.9571 1.114 1.7695 2.38542e-015 3.18055e-015 -0 4.1246 0.48699 4.1451 0.317075 -0.175405 -0.320509 3.4052 -1.45401 2.7682 0.315447 -0.140046 -0.128522 1.4531 -1.79499 1.2713 0.35078 -0.156082 -0.143069 5.6954 0.209987 2.1184 2.30616 -1.15719 -0.938783 3.9766 -1.53999 2.3863 2.3062 -1.15975 -0.939269 1.4042 -1.926 1.125 2.30622 -1.15983 -0.939545 2.0956 0.66 -0.3894 2.38542e-015 3.18055e-015 -0 5.0395 -0.0900157 2.4971 2.11527 -3.94883 -5.6198 3.7921 -1.55199 1.4806 4.63317 -2.58138 -2.11986 1.4655 -1.808 0.960896 4.63343 -2.58137 -2.11991 4.9141 -1.269 0.359104 10.9784 -6.67179 -4.30671 3.14771 -1.685 0.846198 4.0853 -2.42017 -1.84466 0.805499 -1.585 0.795498 2.97733 -1.72228 -1.34926 -1.7069 20.075 5.0056 -43.5543 -1.1986 5.48069 -13.6458 -0.0470127 -4.849 -10.9167 -42.4471 -6.7506 -28.3255 -0.975878 2.2888 6.43952 -32.1232 7.72191 -22.1583 -0.529996 10.8316 11.6918 -18.7014 -6.12381 -0.786001 0.112005 2.5817 -19.2121 49.9311 17.782 -0.360111 -0.87799 4.23311 -0.518256 0.461426 -1.59088 -1.81269 -1.216 2.2227 -2.77347 2.81314 -9.0134 -0.9571 1.114 1.7695 6.36111e-015 0 -3.18055e-015 -4.12461 0.487012 4.14511 -23.6185 3.40211 -15.5055 -3.4052 -1.45401 2.7682 39.4979 10.0978 -9.27471 -1.4531 -1.795 1.27129 38.8029 9.98601 -9.0615 -5.6954 0.210003 2.1184 -1.04219 5.48644 -10.0637 -3.9766 -1.54 2.38631 52.3089 13.5299 -14.1045 -1.4042 -1.926 1.125 44.0035 12.3921 -11.1857 -2.0956 0.66 -0.3894 6.36111e-015 0 -3.18055e-015 -5.03951 -0.089989 2.49711 16.4926 0.275077 -5.65909 -3.7921 -1.552 1.48061 37.334 11.9096 -10.7863 -1.4655 -1.80801 0.960896 38.6322 12.1694 -11.2725 -4.9141 -1.26899 0.359197 24.6638 -0.263246 -2.0754 -3.14769 -1.68501 0.846195 30.529 11.315 -8.19443 -0.805499 -1.585 0.795496 30.4595 11.2958 -8.17 8.367 -8.2066 0.598199 -25.1408 3.3062 -3.26457 2.19231 -43.463 -0.493197 0.52156 -1.39288 1.04355 0.733303 -45.8593 -2.6451 10.6523 0.0802457 -6.58236 -8.367 -8.2066 0.598201 -2.39427 -15.3903 46.425 -2.19261 -43.463 -0.492752 13.8829 43.0737 -7.19111 -0.733299 -45.8594 -2.64509 -15.4787 3.74241 -22.4784 
-41.3786 99.756 -53.1967 -0.531282 7.35135 104.557 1.79645e-006 -1.186 -1.5018 -0.167639 -2.34492 0.977809 1.17339e-006 9.964 0.213399 -0.295536 -4.69235 1.95118 -3.13416e-007 13.134 -3.2573 -0.295537 -4.69235 1.95116 -1.27242e-006 20.686 -1.6905 -0.269047 14.5366 -9.03397 -1.94768e-006 7.23801 -0.123701 -6.80515 -0.582533 -9.43796 1.7069 20.075 5.0056 -1.48207 1.00354 9.44071 13.6458 -0.0470061 -4.849 -68.4699 -1.93388 33.9769 28.3255 -0.975904 2.28881 -1.4185 4.40512 -6.35539 22.1583 -0.529999 10.8316 -24.425 -31.7501 2.54411 0.786005 0.111995 2.5817 -0.477896 -0.0869117 -1.02021 0.360097 -0.878 4.2331 -0.182604 -0.0215465 -0.334184 1.8127 -1.21601 2.2227 -0.199608 -0.023246 -0.365515 0.9571 1.114 1.7695 -2.38542e-015 -3.18055e-015 -1.59028e-015 4.1246 0.486992 4.1451 0.688746 -0.381967 -0.695907 3.4052 -1.454 2.7682 0.68476 -0.305396 -0.278376 1.4531 -1.79499 1.2713 0.762225 -0.34048 -0.309844 5.6954 0.209985 2.1184 2.6484 -1.33051 -1.07435 3.9766 -1.53999 2.3863 2.64727 -1.33525 -1.07486 1.4042 -1.926 1.125 2.64733 -1.33536 -1.07517 2.0956 0.66 -0.3894 -2.38542e-015 -3.18055e-015 -1.59028e-015 5.03951 -0.0900122 2.4971 2.44393 -4.05096 -5.62755 3.7921 -1.55199 1.4806 4.88636 -2.72875 -2.23086 1.4655 -1.808 0.960901 4.88663 -2.72878 -2.2309 4.9141 -1.269 0.359103 11.2354 -6.60406 -4.03757 3.1477 -1.68501 0.846202 4.35106 -2.58364 -1.95982 0.805498 -1.585 0.795502 3.26675 -1.92126 -1.48594 -1.7069 20.075 5.0056 -43.52 -1.18868 5.3591 -13.6458 -0.0470085 -4.849 -11.5 -42.5818 -6.34016 -28.3255 -0.97588 2.2888 5.83803 -31.3401 6.52052 -22.1583 -0.529995 10.8316 12.1377 -18.685 -5.95672 -0.786 0.112006 2.5817 -19.2121 49.9311 17.782 -0.360107 -0.877995 4.2331 -0.518252 0.461438 -1.59087 -1.81269 -1.216 2.22269 -2.77349 2.81314 -9.01339 -0.9571 1.114 1.7695 -0 -3.18055e-015 -0 -4.12461 0.487012 4.14511 -23.6185 3.4021 -15.5055 -3.4052 -1.45401 2.76819 39.4979 10.0978 -9.27472 -1.4531 -1.79499 1.2713 38.8029 9.986 -9.0615 -5.69541 0.210003 2.11841 -1.04221 5.48643 -10.0637 -3.9766 -1.54 2.3863 52.3089 13.53 -14.1045 -1.4042 -1.926 1.125 44.0035 12.3921 -11.1857 -2.0956 0.66 -0.3894 -0 -3.18055e-015 -0 -5.03951 -0.0899858 2.4971 16.4926 0.275065 -5.6591 -3.7921 -1.55201 1.4806 37.334 11.9096 -10.7863 -1.4655 -1.808 0.960906 38.6321 12.1694 -11.2725 -4.91411 -1.26899 0.359201 24.6638 -0.263222 -2.07539 -3.1477 -1.68501 0.8462 30.529 11.3149 -8.19443 -0.8055 -1.585 0.7955 30.4595 11.2958 -8.16999 8.367 -8.20659 0.598201 -25.575 3.89907 -4.07634 2.1923 -43.463 -0.4932 0.519324 -1.21171 1.0485 0.733307 -45.8593 -2.6451 10.8418 0.0996787 -6.65956 -8.367 -8.2066 0.5982 -2.57539 -15.168 46.9256 -2.19209 -43.4631 -0.493323 14.3596 44.0981 -7.68517 -0.7333 -45.8593 -2.64511 -14.2267 4.48544 -21.6842 
